<?xml version="1.0" standalone="no"?>
<!DOCTYPE svg PUBLIC "-//W3C//DTD SVG 20010904//EN"
 "http://www.w3.org/TR/2001/REC-SVG-20010904/DTD/svg10.dtd">
<svg version="1.0" xmlns="http://www.w3.org/2000/svg"
 width="512.000000pt" height="512.000000pt" viewBox="0 0 512.000000 512.000000"
 preserveAspectRatio="xMidYMid meet">
<metadata>
Created by potrace 1.14, written by Peter Selinger 2001-2017
</metadata>
<g transform="translate(0.000000,512.000000) scale(0.100000,-0.100000)"
fill="#000000" stroke="none">
<path d="M819 3579 c-265 -38 -479 -227 -516 -456 -10 -59 -11 -1021 -1 -1083
37 -239 244 -430 508 -467 59 -9 221 -8 286 0 124 17 283 96 362 181 81 87
152 258 152 366 l0 36 -202 1 -203 1 -3 -40 c-1 -22 -12 -59 -24 -81 -43 -86
-116 -122 -240 -121 -125 2 -211 66 -233 174 -14 64 -9 953 5 996 20 60 47 92
103 121 45 23 64 26 137 26 99 -1 145 -17 194 -69 32 -34 57 -96 60 -147 1
-22 2 -22 205 -23 l203 -1 -6 68 c-20 242 -194 437 -451 504 -69 18 -254 26
-336 14z"/>
<path d="M2420 3579 c-98 -16 -115 -21 -184 -50 -169 -71 -296 -226 -324 -393
-13 -83 -5 -228 17 -301 54 -182 198 -326 396 -397 47 -17 121 -36 278 -72 83
-19 133 -44 175 -87 85 -87 75 -241 -21 -313 -122 -91 -392 -54 -451 62 -7 15
-16 44 -20 65 l-7 37 -202 -2 -202 -3 3 -45 c15 -241 182 -421 452 -491 149
-38 367 -31 513 17 151 50 276 156 341 288 107 219 63 507 -101 672 -100 100
-202 149 -416 200 -209 49 -238 60 -285 99 -106 92 -92 284 25 340 49 25 66
28 138 28 84 1 125 -9 177 -43 44 -29 74 -77 81 -130 l4 -25 201 0 202 -1 0
31 c0 54 -28 162 -56 219 -71 145 -243 260 -438 291 -88 14 -227 16 -296 4z"/>
<path d="M4035 3579 c-269 -39 -456 -203 -503 -442 -4 -18 -6 -77 -6 -132 1
-193 69 -338 217 -459 24 -20 49 -36 55 -36 6 0 12 -4 14 -8 6 -16 173 -85
233 -96 11 -2 43 -10 70 -16 28 -6 61 -14 75 -16 169 -31 252 -103 264 -226 8
-79 -33 -161 -97 -195 -122 -64 -332 -42 -406 42 -27 31 -51 88 -51 123 0 9
-48 12 -204 12 l-204 0 4 -52 c26 -271 224 -459 534 -506 25 -3 101 -6 170 -5
317 3 534 137 630 388 30 78 37 249 14 345 -58 248 -238 399 -554 465 -8 1
-35 8 -60 15 -25 7 -54 14 -65 16 -11 2 -31 6 -44 9 -26 5 -98 39 -121 58 -86
68 -95 232 -18 314 59 63 231 78 329 30 61 -30 99 -78 108 -135 l6 -37 199 0
c156 0 200 3 204 13 10 28 -20 160 -53 227 -77 157 -225 260 -430 300 -53 10
-248 13 -310 4z"/>
</g>
</svg>
